D:\PredSimResults\Vitruvian_Man\IG_v30ms_ATx70.mot
version=1
nRows=16
nColumns=31
inDegrees=yes
endheader
                time	         pelvis_tilt	           pelvis_tx	           pelvis_ty	       hip_flexion_r	        knee_angle_r	       ankle_angle_r	       hip_flexion_l	        knee_angle_l	       ankle_angle_l	    lumbar_extension	          arm_flex_r	          arm_flex_l	hamstrings_r/activation	bifemsh_r/activation	glut_max_r/activation	iliopsoas_r/activation	rect_fem_r/activation	  vasti_r/activation	gastroc_r/activation	 soleus_r/activation	tib_ant_r/activation	hamstrings_l/activation	bifemsh_l/activation	glut_max_l/activation	iliopsoas_l/activation	rect_fem_l/activation	  vasti_l/activation	gastroc_l/activation	 soleus_l/activation	tib_ant_l/activation	
          0.00000000	         -5.69670025	          0.00000000	          0.99465313	         29.78780099	        -22.39049286	          2.56126374	          6.09612019	        -44.09612003	        -21.49612898	        -12.30738593	         13.37000600	         13.37000467	          0.74898267	          0.11110467	          0.51097751	          0.05000570	          0.05415571	          0.05000016	          0.05865694	          0.05865702	          0.52499173	          0.05000035	          0.49678903	          0.05000005	          0.95067450	          0.90494502	          0.06421606	          0.15130182	          0.08723785	          0.30656235	
          0.00498690	         -5.70327217	          0.01540386	          0.99245597	         29.54361625	        -22.65646066	          2.21823500	          6.71692936	        -45.40249211	        -20.84477502	        -12.20466681	         13.27579611	         13.27579468	          0.69150802	          0.10257913	          0.60474467	          0.05000011	          0.05000010	          0.05000028	          0.05415579	          0.05415586	          0.64350984	          0.05922050	          0.49743882	          0.05000011	          0.89381042	          0.92866199	          0.05928831	          0.13969146	          0.08054349	          0.31397609	
          0.00997379	         -5.73647283	          0.03085344	          0.98997428	         29.39800649	        -23.49078978	          2.09195941	          7.41730373	        -46.70112293	        -20.16240949	        -12.05115100	         13.17097351	         13.17097197	          0.63844379	          0.09470760	          0.67697234	          0.05000012	          0.05000010	          0.18780959	          0.05000008	          0.05000012	          0.59412888	          0.05467622	          0.53436454	          0.05000012	          0.83818386	          0.94646139	          0.05473871	          0.12897204	          0.07436283	          0.32198977	
          0.01496069	         -5.79555528	          0.04635140	          0.98725144	         29.30941329	        -24.78642200	          2.00759590	          8.19214416	        -47.98301480	        -19.43982288	        -11.84952422	         13.05600538	         13.05600375	          0.58945156	          0.08744008	          0.75756994	          0.05000094	          0.05000040	          0.37788699	          0.09931665	          0.14001014	          0.54853725	          0.05048063	          0.58640329	          0.05000004	          0.77386430	          0.95981969	          0.05053824	          0.11907519	          0.06865647	          0.32798220	
          0.01994759	         -5.87952382	          0.06191061	          0.98436098	         29.17797381	        -26.11054718	          2.39832453	          9.03327218	        -49.23254430	        -18.68735318	        -11.60209280	         12.92948922	         12.92948750	          0.54421883	          0.08073024	          0.81805817	          0.05000011	          0.05000020	          0.53310934	          0.15032423	          0.18123707	          0.50644418	          0.06907304	          0.60991689	          0.05000006	          0.71448034	          0.96984496	          0.05000002	          0.10993780	          0.06338799	          0.33351222	
          0.02493449	         -5.98935949	          0.07746681	          0.98142472	         29.00218853	        -27.37703473	          3.29311135	          9.94445878	        -50.43886516	        -17.92994583	        -11.31946398	         12.80067489	         12.80067309	          0.50245713	          0.07453530	          0.86345394	          0.05000009	          0.05000014	          0.64960244	          0.13879118	          0.19373607	          0.46758121	          0.06880950	          0.65766955	          0.05000009	          0.65965333	          0.97736882	          0.05000003	          0.10150158	          0.05852380	          0.33797572	
          0.02992138	         -6.12034562	          0.09293100	          0.97858341	         28.82164734	        -28.64527825	          4.57070630	         10.92572911	        -51.59318535	        -17.17879121	        -11.02213371	         12.68368623	         12.68368436	          0.46390010	          0.06881575	          0.88997179	          0.05000009	          0.05000014	          0.73702954	          0.16032447	          0.24084206	          0.43170045	          0.06352941	          0.74308054	          0.05000008	          0.60903357	          0.98301531	          0.05000003	          0.09371273	          0.05403289	          0.33928861	
          0.03490828	         -6.26413645	          0.10825556	          0.97594754	         28.64165660	        -29.87522216	          5.80725604	         11.96820156	        -52.68764035	        -16.42105229	        -10.72857105	         12.58733383	         12.58733191	          0.42830181	          0.06353512	          0.89703710	          0.05000010	          0.05000017	          0.80264285	          0.19261418	          0.29258435	          0.39857308	          0.05865443	          0.80718370	          0.05000006	          0.56229821	          0.98247429	          0.05000003	          0.08652158	          0.05000007	          0.34107158	
          0.03989518	         -6.41343338	          0.12343854	          0.97357748	         28.44496197	        -31.03790065	          6.92220797	         13.05943618	        -53.71629101	        -15.63885319	        -10.44883785	         12.51346802	         12.51346604	          0.39543523	          0.05865972	          0.88739963	          0.05000013	          0.05000023	          0.85188510	          0.22245503	          0.34319254	          0.36798780	          0.05415355	          0.85529279	          0.05000005	          0.51914919	          0.95008019	          0.05000003	          0.07988226	          0.05000009	          0.34497772	
          0.04488208	         -6.56296248	          0.13850209	          0.97149972	         28.20248426	        -32.09551722	          7.91853726	         14.18739848	        -54.67366006	        -14.85282762	        -10.18679845	         12.45999430	         12.45999228	          0.36509074	          0.05415851	          0.85567894	          0.05000013	          0.05000025	          0.88884099	          0.25225454	          0.39251107	          0.33974954	          0.05000018	          0.89139830	          0.05000004	          0.47931129	          0.91179097	          0.05000003	          0.07375243	          0.05000008	          0.34902092	
          0.04986897	         -6.71034402	          0.15346998	          0.96972113	         27.89029218	        -33.01379980	          8.79939508	         15.34404980	        -55.55762602	        -14.09235741	         -9.94251286	         12.42401220	         12.42401014	          0.33707478	          0.05000292	          0.79001693	          0.05000011	          0.05000019	          0.91657609	          0.28156462	          0.43975824	          0.31367821	          0.05000042	          0.91849519	          0.05000004	          0.44253044	          0.86470740	          0.05000003	          0.06809299	          0.05000007	          0.35367041	
          0.05485587	         -6.85615604	          0.16835751	          0.96823597	         27.49809935	        -33.77563918	          9.56989551	         16.52620936	        -56.37147167	        -13.36032843	         -9.71369798	         12.40327554	         12.40327345	          0.31120869	          0.05000086	          0.72939346	          0.05000009	          0.05000017	          0.93739104	          0.31112771	          0.48482016	          0.28960750	          0.05000070	          0.93883114	          0.05000005	          0.40857206	          0.81578143	          0.05000003	          0.06286786	          0.05000007	          0.35898899	
          0.05984277	         -7.00081811	          0.18317456	          0.96703459	         27.02312614	        -34.37621111	         10.23476843	         17.73115110	        -57.12092171	        -12.64251774	         -9.49902984	         12.39641470	         12.39641259	          0.28732749	          0.05000093	          0.67342203	          0.05000009	          0.05000016	          0.95301249	          0.34079530	          0.52730790	          0.26738391	          0.05000063	          0.95409290	          0.05000005	          0.37721958	          0.76510352	          0.05000003	          0.05804374	          0.05000007	          0.36454588	
          0.06482967	         -7.14309022	          0.19793065	          0.96610851	         26.46401566	        -34.81583493	         10.79813531	         18.95391537	        -57.81076242	        -11.92478400	         -9.29918513	         12.40245333	         12.40245120	          0.26527885	          0.05000085	          0.62174568	          0.05000008	          0.05000017	          0.96473626	          0.37066232	          0.56684746	          0.24686569	          0.05000036	          0.90713105	          0.05000005	          0.34827312	          0.71427351	          0.05000003	          0.05358992	          0.05000007	          0.36982741	
          0.06981656	         -7.28063674	          0.21263748	          0.96545135	         25.81934204	        -35.09670460	         11.26333397	         20.18652383	        -58.44057067	        -11.20339311	         -9.11581564	         12.42021711	         12.42021498	          0.24492217	          0.05000074	          0.57403481	          0.05000008	          0.05000018	          0.97353485	          0.40085985	          0.60307701	          0.22792197	          0.05000021	          0.83752075	          0.05000005	          0.32154865	          0.66300373	          0.05000003	          0.05000074	          0.05000007	          0.37487951	
          0.07480346	         -7.41044583	          0.22730920	          0.96505867	         25.08716671	        -35.22138491	         11.63264488	         21.41842058	        -59.00466116	        -10.48423824	         -8.95104532	         12.44819414	         12.44819201	          0.22612760	          0.05000059	          0.52998513	          0.05000007	          0.05000019	          0.98013810	          0.43171986	          0.63584683	          0.21043194	          0.05000015	          0.77325202	          0.05000005	          0.30135755	          0.61213020	          0.05000004	          0.05000077	          0.05000006	          0.37986553	
